<mxfile host="app.diagrams.net" agent="Mozilla/5.0 (X11; Ubuntu; Linux x86_64; rv:138.0) Gecko/20100101 Firefox/138.0" version="27.0.9">
  <diagram name="Page-1" id="POKbRjyyL2bzoQBOzGFW">
    <mxGraphModel dx="1305" dy="795" grid="1" gridSize="10" guides="1" tooltips="1" connect="1" arrows="1" fold="1" page="1" pageScale="1" pageWidth="850" pageHeight="1100" math="0" shadow="0">
      <root>
        <mxCell id="0" />
        <mxCell id="1" parent="0" />
        <mxCell id="hCSqvV3AbPPHzn8vGVyA-118" style="edgeStyle=orthogonalEdgeStyle;rounded=0;orthogonalLoop=1;jettySize=auto;html=1;exitX=0.5;exitY=1;exitDx=0;exitDy=0;strokeWidth=2;" edge="1" parent="1" source="hCSqvV3AbPPHzn8vGVyA-109" target="hCSqvV3AbPPHzn8vGVyA-111">
          <mxGeometry relative="1" as="geometry" />
        </mxCell>
        <mxCell id="hCSqvV3AbPPHzn8vGVyA-109" value="&lt;b&gt;RHS&lt;/b&gt;" style="rounded=0;whiteSpace=wrap;html=1;" vertex="1" parent="1">
          <mxGeometry x="280" y="90" width="120" height="60" as="geometry" />
        </mxCell>
        <mxCell id="hCSqvV3AbPPHzn8vGVyA-119" style="edgeStyle=orthogonalEdgeStyle;rounded=0;orthogonalLoop=1;jettySize=auto;html=1;exitX=0.5;exitY=1;exitDx=0;exitDy=0;entryX=0.5;entryY=0;entryDx=0;entryDy=0;strokeWidth=2;" edge="1" parent="1" source="hCSqvV3AbPPHzn8vGVyA-110" target="hCSqvV3AbPPHzn8vGVyA-112">
          <mxGeometry relative="1" as="geometry" />
        </mxCell>
        <mxCell id="hCSqvV3AbPPHzn8vGVyA-110" value="&lt;b&gt;LHS&lt;/b&gt;" style="rounded=0;whiteSpace=wrap;html=1;" vertex="1" parent="1">
          <mxGeometry x="450" y="90" width="120" height="60" as="geometry" />
        </mxCell>
        <mxCell id="hCSqvV3AbPPHzn8vGVyA-129" style="edgeStyle=orthogonalEdgeStyle;rounded=0;orthogonalLoop=1;jettySize=auto;html=1;exitX=0;exitY=0.5;exitDx=0;exitDy=0;strokeWidth=2;" edge="1" parent="1" source="hCSqvV3AbPPHzn8vGVyA-111" target="hCSqvV3AbPPHzn8vGVyA-116">
          <mxGeometry relative="1" as="geometry" />
        </mxCell>
        <mxCell id="hCSqvV3AbPPHzn8vGVyA-142" style="edgeStyle=orthogonalEdgeStyle;rounded=0;orthogonalLoop=1;jettySize=auto;html=1;exitX=0.5;exitY=1;exitDx=0;exitDy=0;entryX=0.5;entryY=0;entryDx=0;entryDy=0;strokeWidth=2;" edge="1" parent="1" source="hCSqvV3AbPPHzn8vGVyA-148" target="hCSqvV3AbPPHzn8vGVyA-124">
          <mxGeometry relative="1" as="geometry" />
        </mxCell>
        <mxCell id="hCSqvV3AbPPHzn8vGVyA-146" style="edgeStyle=orthogonalEdgeStyle;rounded=0;orthogonalLoop=1;jettySize=auto;html=1;exitX=1;exitY=0.75;exitDx=0;exitDy=0;entryX=0;entryY=0.75;entryDx=0;entryDy=0;strokeWidth=2;" edge="1" parent="1" source="hCSqvV3AbPPHzn8vGVyA-111" target="hCSqvV3AbPPHzn8vGVyA-112">
          <mxGeometry relative="1" as="geometry" />
        </mxCell>
        <mxCell id="hCSqvV3AbPPHzn8vGVyA-150" style="edgeStyle=orthogonalEdgeStyle;rounded=0;orthogonalLoop=1;jettySize=auto;html=1;exitX=0.5;exitY=1;exitDx=0;exitDy=0;entryX=0.5;entryY=0;entryDx=0;entryDy=0;strokeWidth=2;" edge="1" parent="1" source="hCSqvV3AbPPHzn8vGVyA-111" target="hCSqvV3AbPPHzn8vGVyA-148">
          <mxGeometry relative="1" as="geometry" />
        </mxCell>
        <mxCell id="hCSqvV3AbPPHzn8vGVyA-111" value="&lt;b&gt;Variable Node&lt;/b&gt;" style="rounded=0;whiteSpace=wrap;html=1;gradientColor=none;" vertex="1" parent="1">
          <mxGeometry x="280" y="200" width="120" height="60" as="geometry" />
        </mxCell>
        <mxCell id="hCSqvV3AbPPHzn8vGVyA-127" style="edgeStyle=orthogonalEdgeStyle;rounded=0;orthogonalLoop=1;jettySize=auto;html=1;exitX=0;exitY=0.5;exitDx=0;exitDy=0;strokeWidth=2;" edge="1" parent="1" source="hCSqvV3AbPPHzn8vGVyA-112">
          <mxGeometry relative="1" as="geometry">
            <mxPoint x="410" y="230" as="targetPoint" />
          </mxGeometry>
        </mxCell>
        <mxCell id="hCSqvV3AbPPHzn8vGVyA-151" style="edgeStyle=orthogonalEdgeStyle;rounded=0;orthogonalLoop=1;jettySize=auto;html=1;exitX=0.5;exitY=1;exitDx=0;exitDy=0;entryX=0.5;entryY=0;entryDx=0;entryDy=0;strokeWidth=2;" edge="1" parent="1" source="hCSqvV3AbPPHzn8vGVyA-112" target="hCSqvV3AbPPHzn8vGVyA-148">
          <mxGeometry relative="1" as="geometry" />
        </mxCell>
        <mxCell id="hCSqvV3AbPPHzn8vGVyA-154" style="edgeStyle=orthogonalEdgeStyle;rounded=0;orthogonalLoop=1;jettySize=auto;html=1;exitX=1;exitY=0.5;exitDx=0;exitDy=0;entryX=0.5;entryY=0;entryDx=0;entryDy=0;strokeWidth=2;" edge="1" parent="1" source="hCSqvV3AbPPHzn8vGVyA-112" target="hCSqvV3AbPPHzn8vGVyA-152">
          <mxGeometry relative="1" as="geometry" />
        </mxCell>
        <mxCell id="hCSqvV3AbPPHzn8vGVyA-112" value="&lt;b&gt;Variable Node&lt;/b&gt;" style="rounded=0;whiteSpace=wrap;html=1;" vertex="1" parent="1">
          <mxGeometry x="450" y="200" width="120" height="60" as="geometry" />
        </mxCell>
        <mxCell id="hCSqvV3AbPPHzn8vGVyA-133" style="edgeStyle=orthogonalEdgeStyle;rounded=0;orthogonalLoop=1;jettySize=auto;html=1;exitX=0.5;exitY=1;exitDx=0;exitDy=0;entryX=0.5;entryY=0;entryDx=0;entryDy=0;strokeWidth=2;" edge="1" parent="1" source="hCSqvV3AbPPHzn8vGVyA-124" target="hCSqvV3AbPPHzn8vGVyA-132">
          <mxGeometry relative="1" as="geometry" />
        </mxCell>
        <mxCell id="hCSqvV3AbPPHzn8vGVyA-156" style="edgeStyle=orthogonalEdgeStyle;rounded=0;orthogonalLoop=1;jettySize=auto;html=1;exitX=1;exitY=0.5;exitDx=0;exitDy=0;" edge="1" parent="1" source="hCSqvV3AbPPHzn8vGVyA-124" target="hCSqvV3AbPPHzn8vGVyA-152">
          <mxGeometry relative="1" as="geometry" />
        </mxCell>
        <mxCell id="hCSqvV3AbPPHzn8vGVyA-124" value="&lt;b&gt;Node&lt;/b&gt;" style="rounded=0;whiteSpace=wrap;html=1;" vertex="1" parent="1">
          <mxGeometry x="362.5" y="440" width="120" height="60" as="geometry" />
        </mxCell>
        <mxCell id="hCSqvV3AbPPHzn8vGVyA-116" value="Expression Graph" style="image;sketch=0;aspect=fixed;html=1;points=[];align=center;fontSize=12;image=img/lib/mscae/Resource_Graph_Explorer.svg;" vertex="1" parent="1">
          <mxGeometry x="140" y="325" width="88.2" height="90" as="geometry" />
        </mxCell>
        <mxCell id="hCSqvV3AbPPHzn8vGVyA-132" value="&lt;b&gt;Behavior Trait&lt;/b&gt;" style="rounded=0;whiteSpace=wrap;html=1;" vertex="1" parent="1">
          <mxGeometry x="362.5" y="540" width="120" height="60" as="geometry" />
        </mxCell>
        <mxCell id="hCSqvV3AbPPHzn8vGVyA-148" value="&lt;b&gt;Inputs&lt;/b&gt;" style="rounded=0;whiteSpace=wrap;html=1;" vertex="1" parent="1">
          <mxGeometry x="362.5" y="340" width="120" height="60" as="geometry" />
        </mxCell>
        <mxCell id="hCSqvV3AbPPHzn8vGVyA-155" style="edgeStyle=orthogonalEdgeStyle;rounded=0;orthogonalLoop=1;jettySize=auto;html=1;exitX=0.5;exitY=1;exitDx=0;exitDy=0;entryX=1;entryY=0.5;entryDx=0;entryDy=0;endArrow=classic;endFill=1;strokeWidth=2;" edge="1" parent="1" source="hCSqvV3AbPPHzn8vGVyA-152" target="hCSqvV3AbPPHzn8vGVyA-124">
          <mxGeometry relative="1" as="geometry" />
        </mxCell>
        <mxCell id="hCSqvV3AbPPHzn8vGVyA-152" value="&lt;b&gt;Upstream &lt;br&gt;&lt;/b&gt;" style="rounded=0;whiteSpace=wrap;html=1;" vertex="1" parent="1">
          <mxGeometry x="537.5" y="340" width="120" height="60" as="geometry" />
        </mxCell>
        <mxCell id="hCSqvV3AbPPHzn8vGVyA-157" style="edgeStyle=orthogonalEdgeStyle;rounded=0;orthogonalLoop=1;jettySize=auto;html=1;exitX=0;exitY=0.5;exitDx=0;exitDy=0;entryX=1.009;entryY=0.489;entryDx=0;entryDy=0;entryPerimeter=0;strokeWidth=2;" edge="1" parent="1" source="hCSqvV3AbPPHzn8vGVyA-124" target="hCSqvV3AbPPHzn8vGVyA-116">
          <mxGeometry relative="1" as="geometry" />
        </mxCell>
      </root>
    </mxGraphModel>
  </diagram>
</mxfile>
